# xmcd
#
# Track frame offsets: 
#        150
#        35385
#        54650
#        77667
#        101467
#        127227
#        154055
#        170365
#        201105
#        233967
#        260147
#
# Disc length: 4066 seconds
#
# Revision: 0
# Processed by: cddbd v1.4PL0 Copyright (c) Steve Scherf et al.
# Submitted via: ExactAudioCopy v0.90b4
#
DISCID=940fe00b
DTITLE=Junior Wells - Live Around the World
DYEAR=2002
DGENRE=Blues
TTITLE0=Broke and Hungry
TTITLE1=Hoo Doo Man
TTITLE2=What My Mama Told Me
TTITLE3=Sweet Sixteen
TTITLE4=Got My Mojo Working
TTITLE5=Little Red Rooster
TTITLE6=Messin With the Kid
TTITLE7=Take Off Your Shoes
TTITLE8=Waitin On The Night Train
TTITLE9=Little By Little
TTITLE10=Help Me
EXTD=
EXTT0=
EXTT1=
EXTT2=
EXTT3=
EXTT4=
EXTT5=
EXTT6=
EXTT7=
EXTT8=
EXTT9=
EXTT10=
PLAYORDER=
